<?xml version="1.0" encoding="utf-8"?>
<!-- Generator: Adobe Illustrator 27.5.0, SVG Export Plug-In . SVG Version: 6.00 Build 0)  -->
<svg version="1.1" id="PRINT" xmlns="http://www.w3.org/2000/svg" xmlns:xlink="http://www.w3.org/1999/xlink" x="0px" y="0px"
	 viewBox="0 0 500 500" style="enable-background:new 0 0 500 500;" xml:space="preserve">
<g>
	
		<rect id="CUSTOM-Background_00000034089646909285307540000009897809110782290874_" style="fill:#FFFFFF;" width="500" height="500"/>
	<g id="CUSTOM-group_00000028302074051405592800000015228923998942132134_">
		<path style="fill:#F6D391;" d="M257.932,165.477c0,0-1.842-13.058-9.432-16.484c0,0-8.452,7.989-7.829,17.541l-11.402,0.144
			c0,0-3.068,9.43,3.378,15.219c0,0-3.031-0.968-1.764,6.395c1.267,7.363,4.548,14.869,20.99,15.332
			c16.442,0.463,19.518-21.546,19.518-21.546l-2.685-0.134l2.503-14.287L257.932,165.477z"/>
		<g>
			<path style="fill:#BA7134;" d="M269.962,157.454c-1.44,0.018-2.593,1.2-2.574,2.64l0.054,4.28
				c-1.733,0.09-4.034-0.209-7.31,0.743c0.187-1.613,0.16-3.253-0.092-4.861c-1.223-7.81-6.581-11.067-8.112-12.913l-0.073-5.807
				c-0.018-1.44-1.2-2.592-2.64-2.574c-1.44,0.018-2.592,1.2-2.574,2.64l0.073,5.807c-1.497,1.9-6.76,5.289-7.783,13.113
				c-0.211,1.614-0.196,3.254,0.031,4.862c-3.284-0.865-5.561-0.511-7.326-0.559l-0.054-4.28c-0.018-1.44-1.2-2.593-2.64-2.574
				s-2.592,1.2-2.574,2.64l0.152,12.015c0.034,2.722,0.682,5.37,1.87,7.765c-1.025,0.361-1.755,1.343-1.741,2.491l0.065,5.128
				c0.125,9.92,8.297,17.889,18.217,17.763l10.255-0.129c9.92-0.125,17.888-8.297,17.763-18.217l-0.065-5.128
				c-0.014-1.148-0.769-2.11-1.803-2.446c1.127-2.424,1.708-5.088,1.674-7.81c-0.022-1.715-0.13-10.303-0.152-12.015
				C272.584,158.589,271.402,157.436,269.962,157.454L269.962,157.454z M267.507,169.589c-0.139,1.389,0.839,5.737-2.416,10.201
				c-4.982,0.069-9.469,2.168-12.685,5.498l-0.035-2.73c-0.089-7.044,5.57-12.848,12.614-12.937L267.507,169.589z M244.101,161.199
				c0.717-5.481,4.383-7.906,5.28-9.055c0.929,1.13,4.652,3.46,5.507,8.919c0.388,2.476,0.03,5.054-1.007,7.319
				c-1.688,1.36-3.126,3.015-4.233,4.888c-1.154-1.844-2.634-3.463-4.355-4.78C244.199,166.252,243.776,163.684,244.101,161.199
				L244.101,161.199z M247.158,182.623l0.034,2.73c-3.299-3.247-7.838-5.232-12.819-5.176c-3.367-4.383-2.497-8.742-2.672-10.137
				l2.52-0.032C241.266,169.92,247.069,175.579,247.158,182.623z M231.927,187.944l-0.032-2.52l2.52-0.032
				c7.045-0.089,12.848,5.57,12.937,12.615l0.032,2.52l-2.52,0.032C237.819,200.647,232.015,194.988,231.927,187.944z
				 M267.733,187.492c0.089,7.045-5.57,12.848-12.615,12.937l-2.52,0.032l-0.032-2.52c-0.089-7.044,5.57-12.848,12.614-12.937
				l2.52-0.032L267.733,187.492z"/>
		</g>
	</g>
	<path id="CUSTOM_00000143578409390140218350000000098858928692920216_" style="fill:#BA7134;" d="M250.001,223.441
		c-26.355,0-47.796-21.442-47.796-47.796s21.442-47.796,47.796-47.796s47.796,21.442,47.796,47.796S276.355,223.441,250.001,223.441
		z M250.001,134.113c-22.901,0-41.532,18.631-41.532,41.532s18.631,41.532,41.532,41.532s41.531-18.631,41.531-41.532
		S272.901,134.113,250.001,134.113z"/>
	<g id="CUSTOM-group_00000093154594314111536320000004972257644751531657_">
		<path style="fill:#BA7134;" d="M328.614,181.439h-15.027c-2.076,0-3.759-1.682-3.759-3.759c0-2.076,1.682-3.759,3.759-3.759
			h15.027c2.076,0,3.759,1.682,3.759,3.759C332.373,179.757,330.691,181.439,328.614,181.439z"/>
		<path style="fill:#BA7134;" d="M186.415,181.439h-15.027c-2.076,0-3.759-1.682-3.759-3.759c0-2.076,1.683-3.759,3.759-3.759
			h15.027c2.076,0,3.759,1.682,3.759,3.759C190.173,179.757,188.49,181.439,186.415,181.439z"/>
	</g>
	
		<line id="CUSTOM" style="fill:none;stroke:#BA7134;stroke-width:5;stroke-linecap:round;stroke-linejoin:round;stroke-miterlimit:10;" x1="68.399" y1="321.134" x2="431.602" y2="321.134"/>
	
		<text transform="matrix(1 0 0 1 193.5425 361.7901)" style="fill:#BA7134; font-family:'Quicksand-Bold'; font-size:34.1971px; letter-spacing:3;">Bakery</text>
	<text transform="matrix(1 0 0 1 98.3081 302.338)" style="fill:#BA7134; font-family:'Solway-Medium'; font-size:95.5552px;">Tartane</text>
</g>
</svg>
